<svg width="141" height="39" viewBox="0 0 141 39" fill="none" xmlns="http://www.w3.org/2000/svg">
<path d="M32.3135 38.0225H28.3584L16.3711 10.0684L4.16406 38.0225H0.233398L16.0049 1.84082H16.7617L32.3135 38.0225ZM55.5068 0.839844C60.9756 0.839844 65.5492 2.6709 69.2275 6.33301C72.9222 9.99512 74.7695 14.5036 74.7695 19.8584C74.7695 25.1481 72.9303 29.6403 69.252 33.335C65.5736 37.0296 61.0895 38.877 55.7998 38.877C50.4287 38.877 45.8958 37.0459 42.2012 33.3838C38.5065 29.7054 36.6592 25.2539 36.6592 20.0293C36.6592 16.5625 37.4974 13.3398 39.1738 10.3613C40.8503 7.38281 43.1452 5.05534 46.0586 3.37891C48.972 1.6862 52.1214 0.839844 55.5068 0.839844ZM55.6533 4.4043C52.984 4.4043 50.445 5.10417 48.0361 6.50391C45.6436 7.88737 43.7799 9.76725 42.4453 12.1436C41.1107 14.5036 40.4434 17.1322 40.4434 20.0293C40.4434 24.3262 41.9245 27.9557 44.8867 30.918C47.8652 33.8802 51.4541 35.3613 55.6533 35.3613C58.4528 35.3613 61.0488 34.6777 63.4414 33.3105C65.834 31.9434 67.6976 30.0879 69.0322 27.7441C70.3669 25.3841 71.0342 22.7555 71.0342 19.8584C71.0342 16.9938 70.3669 14.3978 69.0322 12.0703C67.6976 9.74284 65.8177 7.88737 63.3926 6.50391C60.9674 5.10417 58.3877 4.4043 55.6533 4.4043ZM85.5361 37.9736H81.9229V1.76758H100.062V5.33203H85.5361V37.9736ZM121.229 0.839844C126.698 0.839844 131.272 2.6709 134.95 6.33301C138.645 9.99512 140.492 14.5036 140.492 19.8584C140.492 25.1481 138.653 29.6403 134.975 33.335C131.296 37.0296 126.812 38.877 121.522 38.877C116.151 38.877 111.618 37.0459 107.924 33.3838C104.229 29.7054 102.382 25.2539 102.382 20.0293C102.382 16.5625 103.22 13.3398 104.896 10.3613C106.573 7.38281 108.868 5.05534 111.781 3.37891C114.695 1.6862 117.844 0.839844 121.229 0.839844ZM121.376 4.4043C118.707 4.4043 116.168 5.10417 113.759 6.50391C111.366 7.88737 109.503 9.76725 108.168 12.1436C106.833 14.5036 106.166 17.1322 106.166 20.0293C106.166 24.3262 107.647 27.9557 110.609 30.918C113.588 33.8802 117.177 35.3613 121.376 35.3613C124.175 35.3613 126.771 34.6777 129.164 33.3105C131.557 31.9434 133.42 30.0879 134.755 27.7441C136.09 25.3841 136.757 22.7555 136.757 19.8584C136.757 16.9938 136.09 14.3978 134.755 12.0703C133.42 9.74284 131.54 7.88737 129.115 6.50391C126.69 5.10417 124.11 4.4043 121.376 4.4043Z" fill="white"/>
</svg>
