<svg width="25" height="25" viewBox="0 0 25 25" fill="none" xmlns="http://www.w3.org/2000/svg">
<path d="M19.7889 20.8337C10.9024 20.8462 4.15763 14.0212 4.167 5.21178C4.167 4.63574 4.63367 4.16699 5.20867 4.16699H7.95867C8.47429 4.16699 8.91284 4.54616 8.98888 5.05658C9.17023 6.28059 9.52629 7.47225 10.0462 8.59512L10.1535 8.82637C10.2255 8.98198 10.241 9.15787 10.1973 9.32369C10.1536 9.48952 10.0533 9.63488 9.91388 9.7347C9.06179 10.343 8.73679 11.567 9.40034 12.5212C10.2357 13.7225 11.2784 14.7656 12.4795 15.6014C13.4347 16.2639 14.6587 15.9389 15.266 15.0878C15.3657 14.948 15.5112 14.8473 15.6772 14.8034C15.8433 14.7595 16.0195 14.775 16.1753 14.8472L16.4055 14.9534C17.5285 15.4743 18.7201 15.8305 19.9441 16.0118C20.4545 16.0878 20.8337 16.5264 20.8337 17.043V19.792C20.8337 19.9289 20.8067 20.0644 20.7543 20.1909C20.7019 20.3173 20.625 20.4322 20.5282 20.5289C20.4314 20.6257 20.3164 20.7024 20.1899 20.7547C20.0634 20.807 19.9278 20.8338 19.791 20.8337H19.7889Z" fill="black" fill-opacity="0.7"/>
</svg>
