<svg width="25" height="25" viewBox="0 0 25 25" fill="none" xmlns="http://www.w3.org/2000/svg">
<path d="M20.9233 4.4073C19.8488 3.32284 18.5692 2.46308 17.1591 1.87811C15.749 1.29314 14.2366 0.994662 12.71 1.00007C6.31299 1.00007 1.09961 6.21199 1.09375 12.6104C1.09375 14.6597 1.62988 16.6534 2.64209 18.4185L1 24.4376L7.1582 22.8233C8.86182 23.7504 10.7704 24.2364 12.71 24.2369H12.7158C19.1143 24.2369 24.3262 19.025 24.332 12.6207C24.3335 11.0944 24.0329 9.58287 23.4477 8.17323C22.8624 6.7636 22.004 5.48371 20.9219 4.4073H20.9233ZM12.71 22.2711C10.98 22.2717 9.28179 21.8061 7.79395 20.9234L7.44238 20.7125L3.78906 21.6705L4.76465 18.1065L4.53613 17.7388C3.56905 16.2012 3.05759 14.421 3.06104 12.6046C3.06104 7.29304 7.39258 2.96003 12.7158 2.96003C13.984 2.95776 15.2401 3.20653 16.4117 3.692C17.5832 4.17748 18.6471 4.89005 19.542 5.78865C20.44 6.68374 21.1519 7.74777 21.6366 8.91936C22.1213 10.0909 22.3693 11.3469 22.3662 12.6148C22.3604 17.9454 18.0288 22.2711 12.71 22.2711ZM18.0054 15.0435C17.7168 14.8985 16.2915 14.1968 16.0234 14.0972C15.7568 14.002 15.562 13.9522 15.3716 14.2423C15.1768 14.5308 14.6201 15.1885 14.4531 15.3775C14.2861 15.5723 14.1133 15.5943 13.8232 15.4508C13.5347 15.3043 12.5986 14.9996 11.4912 14.0079C10.627 13.2388 10.0483 12.2867 9.87549 11.9981C9.7085 11.7081 9.85938 11.5528 10.0044 11.4078C10.1318 11.2789 10.293 11.0679 10.438 10.901C10.5845 10.734 10.6328 10.6109 10.728 10.4176C10.8232 10.2213 10.7778 10.0543 10.7061 9.90925C10.6328 9.76423 10.0542 8.33308 9.80957 7.75593C9.5752 7.18611 9.33643 7.26521 9.15771 7.25788C8.99072 7.24763 8.7959 7.24763 8.60107 7.24763C8.45395 7.25129 8.30917 7.28532 8.17582 7.34758C8.04247 7.40984 7.92343 7.499 7.82617 7.60945C7.55957 7.89949 6.81396 8.60115 6.81396 10.0323C6.81396 11.4635 7.854 12.8389 8.00049 13.0338C8.14404 13.2286 10.0425 16.1568 12.9561 17.4166C13.6445 17.7169 14.1865 17.8941 14.6099 18.0289C15.3057 18.2515 15.9341 18.2178 16.4351 18.1461C16.9917 18.0611 18.1504 17.4429 18.395 16.7647C18.6353 16.085 18.6353 15.505 18.562 15.3834C18.4902 15.2603 18.2954 15.1885 18.0054 15.0435Z" fill="black" fill-opacity="0.7"/>
</svg>
